<svg viewBox="0 0 512 512" fill="none" xmlns="http://www.w3.org/2000/svg">
  <rect width="512" height="512" rx="118" fill="#2563EB"/>
  <rect x="210" y="104" width="92" height="30" rx="6" fill="#FAFAFA"/>
  <path d="M176 156 H 172 Q 126 156 126 202 V 330 Q 126 376 172 376 H 176" stroke="#FAFAFA" stroke-width="36" stroke-linecap="round"/>
  <path d="M336 156 H 340 Q 386 156 386 202 V 330 Q 386 376 340 376 H 336" stroke="#FAFAFA" stroke-width="36" stroke-linecap="round"/>
  <path d="M241 212 Q 233 192 220 180" stroke="#FAFAFA" stroke-width="12" stroke-linecap="round"/>
  <path d="M271 212 Q 279 192 292 180" stroke="#FAFAFA" stroke-width="12" stroke-linecap="round"/>
  <path d="M 223 250 A 33 33 0 0 1 289 250 Z" fill="#FAFAFA"/>
  <ellipse cx="256" cy="313" rx="43" ry="56" fill="#FAFAFA"/>
  <line x1="256" y1="252" x2="256" y2="370" stroke="#2563EB" stroke-width="9"/>
  <path d="M 218 280 Q 198 274 191 254" stroke="#FAFAFA" stroke-width="12" stroke-linecap="round"/>
  <path d="M 212 314 H 184" stroke="#FAFAFA" stroke-width="12" stroke-linecap="round"/>
  <path d="M 221 344 Q 204 350 199 368" stroke="#FAFAFA" stroke-width="12" stroke-linecap="round"/>
  <path d="M 294 280 Q 314 274 321 254" stroke="#FAFAFA" stroke-width="12" stroke-linecap="round"/>
  <path d="M 300 314 H 328" stroke="#FAFAFA" stroke-width="12" stroke-linecap="round"/>
  <path d="M 291 344 Q 308 350 313 368" stroke="#FAFAFA" stroke-width="12" stroke-linecap="round"/>
</svg>
